<svg width="15" height="15" viewBox="0 0 2.4 2.4" xmlns="http://www.w3.org/2000/svg" aria-hidden="true" class="iconify iconify--noto"><path fill="#ca2c31" d="m.071 1.345.306-.302.522-.092-.052.273-.705.216-.046-.02z"/><path fill="#a02422" d="m.43 1.12-.332.303.245.119.371-.19v-.089l.076-.205zm.787.533-.161.07-.152.322s.134.296.14.296l.082.006.27-.302.068-.516z"/><path d="M1.059 1.891s.089-.018.153-.049.142-.076.142-.076l-.029.252-.282.321s-.011-.014-.058-.116l-.05-.11z" fill="#ca2c31"/><path d="M.592 1.512s-.108-.009-.226.14c-.108.136-.158.358-.178.415s-.066.069-.051.095.083.025.166.014.154-.036.154-.036l-.016.028c-.004.007-.019.017-.018.027.003.025.213.025.381-.148.181-.187.093-.34.093-.34z" fill="#f7d74d"/><path d="M.625 1.599s-.116.006-.212.155-.141.322-.131.333.188-.053.231-.04c.029.009.014.039.022.047.007.007.084.018.21-.118s.096-.327.096-.327z" fill="#fbf0b4"/><path d="M.682 1.396s-.058.052-.079.082-.021.032-.019.041.023.108.113.194c.11.106.209.121.223.121s.109-.106.109-.106z" fill="#858585"/><path d="M.939 1.711s.095.062.253.009c.217-.073.375-.235.572-.441.19-.198.349-.445.349-.445L2.001.46z" fill="#437687"/><path d="m1.275 1.506.026-.081.065.009.086.041c.036.018.084.03.084.03l-.093.078s-.051-.019-.088-.035c-.042-.018-.081-.042-.081-.042" fill="#3f545f"/><path d="M1.581.303s-.18.105-.439.349c-.233.221-.406.42-.448.59-.035.142-.016.228.063.322.084.099.182.148.182.148s.074.001.382-.236c.385-.297.693-.793.693-.793z" fill="#8dafbf"/><path d="M1.953.785S1.796.718 1.684.562c-.111-.155-.102-.26-.102-.26s.093-.073.302-.156c.141-.056.332-.085.395-.038s-.043.281-.043.281l-.193.374z" fill="#d83f22"/><path d="M1.278 1.508s-.136-.069-.222-.168A.9.9 0 0 1 .859.95L.941.854s.021.217.196.404a.9.9 0 0 0 .233.178l-.049.04-.042.032" fill="#6896a5"/><path d="M2.113.834s.081-.098.158-.319c.108-.308.014-.402.014-.402s-.032.147-.142.35c-.088.163-.195.319-.195.319s.059.026.091.036c.04.012.074.016.074.016" fill="#a02422"/><path d="M.746 1.306c.024.023.061-.001.085-.058q.035-.084.005-.102c-.023-.017-.062.02-.079.053-.019.036-.03.09-.011.108m.847-.93S1.45.48 1.298.619c-.14.128-.232.228-.245.251-.013.025-.014.06-.003.078s.034.027.055.012c.021-.016.172-.183.308-.302.125-.109.221-.178.221-.178s.039-.069.033-.085-.074-.018-.074-.018" fill="#b3e1ee"/><path d="M1.593.377s.105-.081.22-.138c.107-.053.213-.097.232-.059.018.036-.101.086-.205.153s-.205.146-.205.146S1.62.451 1.61.425L1.594.376" fill="#ed6a65"/><path d="M1.68.736a.223.223 0 0 0-.321.015.223.223 0 0 0 .019.304c.079.073.226.09.314-.013A.22.22 0 0 0 1.68.736" fill="#e1e1e1"/><path d="M1.412.785c-.062.061-.059.182.015.237.065.048.156.046.213-.013s.057-.165.004-.221a.16.16 0 0 0-.232-.003" fill="#3f545f"/><path d="M.938 1.442s.116-.118.129-.105.011.084-.044.164c-.057.079-.179.22-.276.316-.096.094-.23.201-.243.2a.2.2 0 0 1-.066-.041c-.016-.019.031-.111.05-.141s.45-.393.45-.393" fill="#a02524"/><path d="M.398 1.91c-.002.027.04.066.04.066l.628-.639s-.029-.033-.116.021a1.7 1.7 0 0 0-.277.229c-.157.153-.274.296-.275.323" fill="#ca2c31"/><path d="M.357.693C.336.714.335.747.359.766.38.783.413.772.426.757S.437.708.42.692C.403.675.37.681.357.693" fill="#fff"/><path d="M.769.668C.753.685.758.711.773.721S.81.73.82.717a.04.04 0 0 0-.004-.05C.803.654.779.657.769.669" opacity=".5" fill="#fff"/><path d="M1.042.223s.023-.065.036-.066c.014-.001.033.065.033.065s.068.001.072.011c.006.013-.043.056-.043.056s.016.064.008.071C1.14.368 1.081.335 1.081.335s-.06.042-.073.03C.997.355 1.02.288 1.02.288S.964.247.967.236c.004-.016.074-.012.074-.012m.778 1.563a.043.043 0 0 0 .062-.019c.01-.022-.008-.047-.024-.054s-.044.002-.054.02.003.045.016.052m.322-.552c-.013-.02-.041-.027-.059-.011s-.013.041-.003.053.037.017.053.007.018-.037.01-.05" fill="#fff"/></svg>